# xmcd
#
# Track frame offsets: 
#        183
#        22758
#        46685
#        66433
#        82758
#        100008
#        119283
#        138558
#        151608
#        183708
#        201558
#        223958
#        246183
#        266958
#        283683
#
# Disc length: 4090 seconds
#
# Revision: 4
# Processed by: cddbd v1.5.2PL0 Copyright (c) Steve Scherf et al.
# Submitted via: ExactAudioCopy v0.99pb5
#
DISCID=da0ff80f
DTITLE=Various Artist - In The Name Of Love
DYEAR=1988
DGENRE=Pop
TTITLE0=Ralph McDonald and Bill Withers - In the name of love
TTITLE1=Cameo - Don't be lonely
TTITLE2=Kool and The Gang - Joanna
TTITLE3=Viktor Lazlo - Last call for an angel
TTITLE4=Shakatak - Love of all time
TTITLE5=Ray, Goodman and Brown - Special lady
TTITLE6=Captain and Tennille - Do that to me one more time
TTITLE7=Derek and The Dominos - Thorn tree in the garden
TTITLE8=Barry White - Just the way you are
TTITLE9=Robert Cray Band - I wonder
TTITLE10=Eric Clapton - Let it grow
TTITLE11=Stylistics - Sail away
TTITLE12=Peter Skellern - You're a lady
TTITLE13=Lizzy Mercier Descloux - My funny valentine
TTITLE14=Gwen Guthrie - You touched my life
EXTD=
EXTT0=
EXTT1=
EXTT2=
EXTT3=
EXTT4=
EXTT5=
EXTT6=
EXTT7=
EXTT8=
EXTT9=
EXTT10=
EXTT11=
EXTT12=
EXTT13=
EXTT14=
PLAYORDER=
